<?xml version="1.0" encoding="UTF-8" standalone="no"?>
<svg width="31px" height="30px" viewBox="0 0 31 30" version="1.1" xmlns="http://www.w3.org/2000/svg" xmlns:xlink="http://www.w3.org/1999/xlink" xmlns:sketch="http://www.bohemiancoding.com/sketch/ns">
    <!-- Generator: Sketch 3.3.3 (12081) - http://www.bohemiancoding.com/sketch -->
    <title>after effects</title>
    <desc>Created with Sketch.</desc>
    <defs></defs>
    <g id="Welcome" stroke="none" stroke-width="1" fill="none" fill-rule="evenodd" sketch:type="MSPage">
        <g id="theory" sketch:type="MSArtboardGroup" transform="translate(-964.000000, -300.000000)">
            <g id="Group" sketch:type="MSLayerGroup" transform="translate(963.000000, 150.000000)">
                <g id="after-effects" transform="translate(0.500000, 150.000000)" sketch:type="MSShapeGroup">
                    <rect id="Rectangle-15-Copy-3" stroke="#000000" fill="#FFFFFF" x="0.94679159" y="0" width="30" height="30"></rect>
                    <path d="M12.2241874,18.741 L13.3161874,22.374 L16.7601874,22.374 L12.3711874,8.22 L8.17118739,8.22 L3.84518739,22.374 L7.16318739,22.374 L8.17118739,18.741 L12.2241874,18.741 Z M8.63318739,16.347 L9.47318739,13.344 C9.70418739,12.525 9.91418739,11.454 10.1241874,10.614 L10.1661874,10.614 C10.3761874,11.454 10.6281874,12.504 10.8801874,13.344 L11.7621874,16.347 L8.63318739,16.347 Z M27.6171874,18.258 C27.6591874,18.027 27.7221874,17.544 27.7221874,16.998 C27.7221874,14.457 26.4621874,11.874 23.1441874,11.874 C19.5741874,11.874 17.9571874,14.751 17.9571874,17.355 C17.9571874,20.568 19.9521874,22.584 23.4381874,22.584 C24.8241874,22.584 26.1051874,22.374 27.1551874,21.954 L26.7351874,19.791 C25.8741874,20.064 24.9921874,20.211 23.9001874,20.211 C22.4091874,20.211 21.1071874,19.581 21.0021874,18.258 L27.6171874,18.258 Z M20.9811874,16.074 C21.0651874,15.213 21.6111874,13.995 22.9551874,13.995 C24.4251874,13.995 24.7611874,15.297 24.7611874,16.074 L20.9811874,16.074 Z" id="Ae" fill="#000000"></path>
                </g>
            </g>
        </g>
    </g>
</svg>