<?xml version="1.0" encoding="UTF-8" standalone="no"?>
<svg width="32px" height="29px" viewBox="0 0 32 29" version="1.1" xmlns="http://www.w3.org/2000/svg" xmlns:xlink="http://www.w3.org/1999/xlink">
    <!-- Generator: Sketch 3.6.1 (26313) - http://www.bohemiancoding.com/sketch -->
    <title>atom</title>
    <desc>Created with Sketch.</desc>
    <defs></defs>
    <g id="Page-1" stroke="none" stroke-width="1" fill="none" fill-rule="evenodd">
        <g id="atom" transform="translate(1.000000, 1.000000)">
            <path d="M24.0871063,6.24502441 C24.5861646,3.70501228 24.3070772,1.77731693 23.1274606,1.01126459 C22.7342549,0.755913803 22.2628394,0.644173583 21.7322835,0.664315772 C18.867282,0.773083583 14.2444911,4.71787654 10.4675197,10.5339024 C5.99110913,17.42697 4.40031402,24.3351898 6.91683071,25.9694339 C8.11138488,26.7451866 10.0148969,26.1952701 12.1653543,24.6628394" id="Shape" stroke="#000000"></path>
            <path d="M26.382874,17.5171701 C28.5075283,16.6929522 29.8139858,15.564805 29.8818898,14.2691386 C30.0389291,11.2726486 23.5178173,8.49850252 15.3100394,8.06835118 C14.5405604,8.02802457 13.7839162,8.00680535 13.0437992,8.00929606 C5.88933449,8.03337331 0.304718528,9.99599079 0.162401575,12.7115598 C0.094631811,14.0046839 1.27275203,15.2585794 3.29232283,16.2991583" id="Shape" stroke="#000000"></path>
            <path d="M12.992126,1.7789811 C11.5384547,0.572865236 10.175091,-0.0748259055 9.07972441,0.00732758268 C8.78808425,0.0292008661 8.51836252,0.101073827 8.26771654,0.228784276 C5.59416047,1.59102914 6.44825953,8.63637236 10.179626,15.9595913 C13.9109924,23.282811 19.1030187,28.1141598 21.7765748,26.7519142 C24.3476929,25.4418638 23.6537386,18.8768542 20.2780512,11.8626425" id="Shape" stroke="#000000"></path>
            <path d="M16.8897638,13.7007874 C16.8897638,14.6792446 16.0965675,15.4724409 15.1181102,15.4724409 C14.139653,15.4724409 13.3464567,14.6792446 13.3464567,13.7007874 C13.3464567,12.7223302 14.139653,11.9291339 15.1181102,11.9291339 C16.0965675,11.9291339 16.8897638,12.7223302 16.8897638,13.7007874 L16.8897638,13.7007874 Z" id="Shape" fill="#000000"></path>
        </g>
    </g>
</svg>