<?xml version="1.0" encoding="UTF-8" standalone="no"?>
<svg width="37px" height="20px" viewBox="0 0 37 20" version="1.1" xmlns="http://www.w3.org/2000/svg" xmlns:xlink="http://www.w3.org/1999/xlink">
    <!-- Generator: Sketch 3.6.1 (26313) - http://www.bohemiancoding.com/sketch -->
    <title>Koala-app</title>
    <desc>Created with Sketch.</desc>
    <defs></defs>
    <g id="Page-1" stroke="none" stroke-width="1" fill="none" fill-rule="evenodd">
        <g id="koala-app" transform="translate(1.000000, 1.000000)" stroke-width="0.5" stroke="#000000" fill="#FFFFFF">
            <g id="Page-1">
                <g id="Koala-app">
                    <path d="M7.66528926,13.5950413 C11.8987116,13.5950413 15.3305785,10.5863163 15.3305785,6.87486583 C15.3305785,3.16341538 11.8987116,0.154690318 7.66528926,0.154690318 C3.43186689,0.154690318 0,3.16341538 0,6.87486583 C0,10.5863163 3.43186689,13.5950413 7.66528926,13.5950413 L7.66528926,13.5950413 Z" id="Oval-3"></path>
                    <path d="M8.95848606,2.28051429 C4.59220393,1.99581446 0.719774254,6.0945356 0.900726562,10.1106841" id="Oval-3-Copy"></path>
                    <path d="M27.3347107,13.5950413 C31.5681331,13.5950413 35,10.5863163 35,6.87486583 C35,3.16341538 31.5681331,0.154690318 27.3347107,0.154690318 C23.1012884,0.154690318 19.6694215,3.16341538 19.6694215,6.87486583 C19.6694215,10.5863163 23.1012884,13.5950413 27.3347107,13.5950413 L27.3347107,13.5950413 Z" id="Oval-3" transform="translate(27.334711, 6.874866) scale(-1, 1) translate(-27.334711, -6.874866) "></path>
                    <path d="M34.1053722,2.28051429 C29.7390901,1.99581446 25.8666604,6.0945356 26.0476127,10.1106841" id="Oval-3-Copy" transform="translate(30.073443, 6.188587) scale(-1, 1) translate(-30.073443, -6.188587) "></path>
                    <path d="M4.91735537,10.0069984 C4.91735537,6.48771868 6.89344293,0.289256178 17.0105315,0.289256198 C27.12762,0.289256219 30.4469669,5.26825496 30.4469683,9.36472189 C30.6467026,13.1561633 31.4759501,18.6523661 18.5353399,18.6523653 C5.59472955,18.6523646 4.96489596,15.5462741 4.91735537,10.0069984 L4.91735537,10.0069984 Z" id="Path-1-Copy"></path>
                    <ellipse id="Oval-1-Copy-3" cx="10.8471074" cy="10.5578512" rx="3.03719008" ry="3.03719008"></ellipse>
                    <ellipse id="Oval-1-Copy-6" cx="10.7024793" cy="9.83471074" rx="1.73553719" ry="1.73553719"></ellipse>
                    <path d="M17.7180254,15.3305785 C19.3279074,15.3305785 20.6329746,14.0255113 20.6329746,12.4156294 C20.6329746,10.8057474 20.6329746,0.867768595 17.3991925,0.867768595 C14.1654105,0.867768595 14.8030763,10.8057474 14.8030763,12.4156294 C14.8030763,14.0255113 16.1081435,15.3305785 17.7180254,15.3305785 L17.7180254,15.3305785 Z" id="Oval-1-Copy-4"></path>
                    <ellipse id="Oval-1-Copy-5" cx="24.731405" cy="10.5578512" rx="3.03719008" ry="3.03719008"></ellipse>
                    <circle id="Oval-1-Copy-7" cx="24.5867769" cy="9.83471074" r="1.73553719"></circle>
                    <path d="M15.0413223,16.4353902 C15.0413223,16.4353902 15.9222393,17.4211822 16.7272883,16.4353902 C17.3460225,15.6777428 18.2360747,15.79189 18.7567889,16.4353902 C19.2961195,17.1018966 20.4017541,16.4353902 20.4017541,16.4353902" id="Path-2-Copy"></path>
                </g>
            </g>
        </g>
    </g>
</svg>