<?xml version="1.0" encoding="UTF-8" standalone="no"?>
<svg width="32px" height="32px" viewBox="0 0 32 32" version="1.1" xmlns="http://www.w3.org/2000/svg" xmlns:xlink="http://www.w3.org/1999/xlink">
    <!-- Generator: Sketch 3.6.1 (26313) - http://www.bohemiancoding.com/sketch -->
    <title>mamp</title>
    <desc>Created with Sketch.</desc>
    <defs></defs>
    <g id="Page-1" stroke="none" stroke-width="1" fill="none" fill-rule="evenodd">
        <g id="mamp" transform="translate(1.000000, 1.000000)">
            <circle id="Oval-17" stroke="#000000" fill="#FFFFFF" cx="15" cy="15" r="15"></circle>
            <path d="M6.43006631,15.0547704 C6.33486946,15.7952035 6.23967261,16.5356366 6.12687733,17.4128413 C6.0099482,17.1748492 5.93423954,17.0648885 5.8991608,16.943235 C4.46010568,11.9622901 7.68829466,7.80197516 11.8339639,7.26610902 C14.3093183,6.9462665 16.4616411,7.91181768 18.4291214,9.33646335 C18.6959324,9.52969169 18.9381765,9.75669957 19.1918773,9.968235 C18.5447513,10.5400067 17.9343576,11.0861484 17.3159324,11.6230775 C16.9579403,11.9338256 16.9332553,12.2638256 17.1712474,12.6649279 C17.6510112,13.4738649 18.2875072,14.0601641 19.2211687,14.2611878 C19.2797513,14.2009515 19.338334,14.1408334 19.3969167,14.0807153 C19.2780978,14.0341799 19.1341214,14.0157547 19.0448301,13.9361484 C18.7378616,13.6620145 18.4132946,13.3950854 18.1625466,13.0729988 C17.6471135,12.4109909 17.6301057,12.2044161 18.2777041,11.70292 C19.266523,10.9369752 20.3243183,10.2597311 21.3562474,9.54977043 C21.7913655,9.25047909 22.1319954,9.39209327 22.4960112,9.73815626 C24.6842395,11.8183137 25.3475466,15.1457153 24.1467198,18.2026444 C23.6432159,19.4844948 22.9141214,20.6179988 21.8618773,21.5249673 C21.7282946,21.6402429 21.5897513,21.8063059 21.4359718,21.8287468 C21.1869954,21.8650067 20.8945545,21.8595736 20.6799482,21.7525657 C20.5917198,21.7085106 20.6031765,21.3385893 20.6622317,21.1452429 C21.0464443,19.8893767 21.4867592,18.6499279 21.8379009,17.3853216 C21.9353419,17.0345342 21.896838,16.5637468 21.7326647,16.2447311 C21.5547907,15.8992586 21.1867592,15.4948492 20.8467198,15.4367389 C20.5475466,15.3855972 20.0132159,15.6936287 19.8600269,15.9876051 C19.3174285,17.0285106 18.8298694,18.1092193 18.4444757,19.2174476 C18.1166017,20.1599673 17.9793576,21.1673295 17.7084128,22.132172 C17.6516017,22.3343767 17.3979009,22.5913846 17.2021923,22.6236287 C16.6445939,22.7154004 16.0702238,22.7234319 15.5022317,22.72792 C15.0173891,22.7316996 14.7651057,22.5258334 14.7812868,21.9685893 C14.8067986,21.0858334 14.7625072,20.1994161 14.7100663,19.3167783 C14.689397,18.9688256 14.6009324,18.6152035 14.4843576,18.2848492 C14.2884128,17.7294948 13.997271,17.1968177 13.3169561,17.1995342 C12.6400663,17.2022507 12.3186883,17.7319752 12.1508537,18.2882744 C11.9764049,18.866424 11.8717592,19.4759909 11.8225072,20.0788256 C11.769712,20.7234712 11.8012474,21.3769752 11.8271135,22.0254004 C11.841523,22.3836287 11.7230584,22.628235 11.3606962,22.6350854 C10.5818773,22.6497311 9.79892458,22.6584712 9.02553875,22.5851248 C8.86372773,22.5697704 8.66778285,22.2088256 8.6037671,21.9752035 C8.02703481,19.8716602 7.47864899,17.7602035 6.91384584,15.653235 C6.85620804,15.4381563 6.74577497,15.2373689 6.65979072,15.0298492 C6.58325529,15.0381169 6.50660174,15.0465027 6.43006631,15.0547704" id="Fill-8" fill="#000000"></path>
        </g>
    </g>
</svg>