<svg xmlns="http://www.w3.org/2000/svg" xmlns:xlink="http://www.w3.org/1999/xlink" width="0" height="0" style="position:absolute">
	
		<symbol id="behance" viewBox="0 0 1792 1792">
			<path d="M1720 339h-511v124h511V339zm-252 426q-90 0-146 52.5T1260 960h408q-18-195-200-195zm16 585q63 0 122-32t76-87h221q-100 307-427 307-214 0-340.5-132T1009 1059q0-208 130.5-345.5T1476 576q138 0 240.5 68t153 179 50.5 248q0 17-2 47h-658q0 111 57.5 171.5T1484 1350zm-1335-50h296q205 0 205-167 0-180-199-180H149v347zm0-537h281q78 0 123.5-36.5T599 613q0-144-190-144H149v294zm-277-509h594q87 0 155 14t126.5 47.5 90 96.5T869 566q0 181-172 263 114 32 172 115t58 204q0 75-24.5 136.5t-66 103.5-98.5 71-121 42-134 13h-611V254z"></path>
		</symbol>
	
		<symbol id="codepen" viewBox="0 0 1792 1792">
			<path d="M216 1169l603 402v-359L485 989zm-62-144l193-129-193-129v258zm819 546l603-402-269-180-334 223v359zm-77-493l272-182-272-182-272 182zM485 803l334-223V221L216 623zm960 93l193 129V767zm-138-93l269-180-603-402v359zm485-180v546q0 41-34 64l-819 546q-21 13-43 13t-43-13L34 1233q-34-23-34-64V623q0-41 34-64L853 13q21-13 43-13t43 13l819 546q34 23 34 64z"></path>
		</symbol>
	
		<symbol id="github" viewBox="0 0 1792 1792">
			<path d="M1664 896q0 251-146.5 451.5T1139 1625q-27 5-39.5-7t-12.5-30v-211q0-97-52-142 57-6 102.5-18t94-39 81-66.5 53-105T1386 856q0-121-79-206 37-91-8-204-28-9-81 11t-92 44l-38 24q-93-26-192-26t-192 26q-16-11-42.5-27T578 459.5 492 446q-44 113-7 204-79 85-79 206 0 85 20.5 150t52.5 105 80.5 67 94 39 102.5 18q-40 36-49 103-21 10-45 15t-57 5-65.5-21.5T484 1274q-19-32-48.5-52t-49.5-24l-20-3q-21 0-29 4.5t-5 11.5 9 14 13 12l7 5q22 10 43.5 38t31.5 51l10 23q13 38 44 61.5t67 30 69.5 7 55.5-3.5l23-4q0 38 .5 89t.5 54q0 18-13 30t-40 7q-232-77-378.5-277.5T128 896q0-209 103-385.5T510.5 231 896 128t385.5 103T1561 510.5 1664 896z"></path>
		</symbol>
	
		<symbol id="medium" viewBox="0 0 1792 1792">
			<path d="M597 421v1173q0 25-12.5 42.5T548 1654q-17 0-33-8L50 1413q-21-10-35.5-33.5T0 1333V193q0-20 10-34t29-14q14 0 44 15l511 256q3 3 3 5zm64 101l534 866-534-266V522zm1131 18v1054q0 25-14 40.5t-38 15.5-47-13l-441-220zm-3-120q0 3-256.5 419.5T1232 1327L842 693l324-527q17-28 52-28 14 0 26 6l541 270q4 2 4 6z"></path>
		</symbol>
	
		<symbol id="sprite" viewBox="">
			
		</symbol>
	
		<symbol id="stack-overflow" viewBox="0 0 1792 1792">
			<path d="M1417 1632H299v-480H139v640h1438v-640h-160v480zm-942-524l33-157 783 165-33 156zm103-374l67-146 725 339-67 145zm201-356l102-123 614 513-102 123zM1176 0l477 641-128 96-477-641zM458 1471v-159h800v159H458z"></path>
		</symbol>
	
		<symbol id="twitter" viewBox="0 0 1792 1792">
			<path d="M1684 408q-67 98-162 167 1 14 1 42 0 130-38 259.5T1369.5 1125 1185 1335.5t-258 146-323 54.5q-271 0-496-145 35 4 78 4 225 0 401-138-105-2-188-64.5T285 1033q33 5 61 5 43 0 85-11-112-23-185.5-111.5T172 710v-4q68 38 146 41-66-44-105-115t-39-154q0-88 44-163 121 149 294.5 238.5T884 653q-8-38-8-74 0-134 94.5-228.5T1199 256q140 0 236 102 109-21 205-78-37 115-142 178 93-10 186-50z"></path>
		</symbol>
	
</svg>
