<?xml version="1.0" encoding="UTF-8" standalone="no"?>
<svg width="30px" height="25px" viewBox="0 0 30 25" version="1.1" xmlns="http://www.w3.org/2000/svg" xmlns:xlink="http://www.w3.org/1999/xlink" xmlns:sketch="http://www.bohemiancoding.com/sketch/ns">
    <!-- Generator: Sketch 3.3.3 (12081) - http://www.bohemiancoding.com/sketch -->
    <title>blender</title>
    <desc>Created with Sketch.</desc>
    <defs></defs>
    <g id="Welcome" stroke="none" stroke-width="1" fill="none" fill-rule="evenodd" sketch:type="MSPage">
        <g id="theory" sketch:type="MSArtboardGroup" transform="translate(-963.000000, -443.000000)" fill="#000000">
            <g id="Group" sketch:type="MSLayerGroup" transform="translate(963.000000, 150.000000)">
                <g id="blender" transform="translate(0.000000, 293.000000)" sketch:type="MSShapeGroup">
                    <path d="M15.8234541,13.9905681 C15.8794613,12.9531912 16.3741098,12.038301 17.1190563,11.3896696 C17.8509923,10.7525093 18.8347132,10.3637638 19.9090124,10.3636364 C20.9826919,10.3637638 21.9665368,10.7525093 22.6984728,11.3896696 C23.4436671,12.038301 23.9381916,12.9530638 23.9948185,13.9901858 C24.051817,15.0572603 23.6353558,16.0487525 22.9039154,16.7827805 C22.1585972,17.5305739 21.096813,18 19.9091363,18 C18.7210878,18 17.6586841,17.5305739 16.9133658,16.7827805 C16.1819255,16.0490074 15.7659598,15.0573878 15.8234541,13.9905681" id="Fill-1"></path>
                    <path d="M9.18828166,15.8385942 C9.1949142,16.2317392 9.32093228,16.9972463 9.50762574,17.597479 C9.90140155,18.8631388 10.5689535,20.0356461 11.4989817,21.0689817 C12.4528379,22.1291619 13.6255676,22.9823782 14.9819202,23.5874355 C16.4084056,24.2232962 17.9531711,24.5485254 19.5559099,24.5454327 C21.1588944,24.5424637 22.7034143,24.2121625 24.1295312,23.5714771 C25.4846555,22.9607292 26.6575081,22.1055336 27.6106273,21.042137 C28.5388131,20.0049665 29.2053825,18.8306035 29.5995268,17.5638303 C29.7986255,16.9232687 29.9228012,16.2745423 29.9737735,15.6223521 C30.0235174,14.9806771 30.0022688,14.336899 29.9119927,13.6947291 C29.7356165,12.4421825 29.3049933,11.2672009 28.6430913,10.1952684 C28.0358462,9.21129247 27.2552956,8.34954036 26.3271098,7.6238674 L26.328338,7.62263031 L16.957923,0.374560258 C16.9496938,0.368003717 16.9420787,0.361447176 16.9339722,0.355014344 C16.3176382,-0.119654453 15.2838231,-0.118169953 14.6081648,0.358478177 C13.9235402,0.840322056 13.8467748,1.63626134 14.4543883,2.1401253 L14.4525459,2.1416098 L18.3610718,5.34342836 L6.44658995,5.35629402 C6.44081719,5.35629402 6.43578138,5.3560466 6.43025427,5.3560466 C5.44581474,5.35666515 4.49981933,6.00860795 4.31152915,6.83027857 C4.12053682,7.66840239 4.78943984,8.36314828 5.8124463,8.36710694 L5.81195501,8.37057077 L11.8500145,8.35894219 L1.07387151,16.68946 C1.06023798,16.6999752 1.04599032,16.7098719 1.03247961,16.7205108 C0.0173339185,17.5044504 -0.311958954,18.8085834 0.327711796,19.6338415 C0.978191114,20.4730787 2.35923142,20.4736973 3.38702805,19.6375528 L9.26750356,14.7906611 C9.26750356,14.7906611 9.18226326,15.4453255 9.18877296,15.8385942 L9.18828166,15.8385942 L9.18828166,15.8385942 Z M24.3002575,18.0286025 C23.0883467,19.2734792 21.3932438,19.9781218 19.5564012,19.9810908 C17.7186989,19.9849257 16.0226134,19.2856026 14.8105798,18.044066 C14.2181965,17.4385138 13.7830288,16.7437679 13.5145341,16.0012706 C13.2518122,15.2729998 13.1496221,14.5006888 13.2166844,13.7205842 C13.2822727,12.9569328 13.5060592,12.2303938 13.866918,11.5716471 C14.2207758,10.9246526 14.7076527,10.3402545 15.3087565,9.84529757 C16.4865221,8.87789857 17.9852284,8.35523094 19.5548045,8.3531279 C21.1245035,8.35090115 22.6233326,8.8694864 23.8010981,9.83317416 C24.4017106,10.3254095 24.8880962,10.907952 25.2421997,11.5537094 C25.6028128,12.2114665 25.826845,12.9370157 25.8928018,13.7007909 C25.9597412,14.4801532 25.857674,15.2530828 25.5948292,15.9819721 C25.3265802,16.7249643 24.8919038,17.4208235 24.3002575,18.0286025 L24.3002575,18.0286025 Z" id="Fill-2"></path>
                </g>
            </g>
        </g>
    </g>
</svg>