<?xml version="1.0" encoding="UTF-8" standalone="no"?>
<svg width="31px" height="30px" viewBox="0 0 31 30" version="1.1" xmlns="http://www.w3.org/2000/svg" xmlns:xlink="http://www.w3.org/1999/xlink" xmlns:sketch="http://www.bohemiancoding.com/sketch/ns">
    <!-- Generator: Sketch 3.3.3 (12081) - http://www.bohemiancoding.com/sketch -->
    <title>indesign</title>
    <desc>Created with Sketch.</desc>
    <defs></defs>
    <g id="Welcome" stroke="none" stroke-width="1" fill="none" fill-rule="evenodd" sketch:type="MSPage">
        <g id="theory" sketch:type="MSArtboardGroup" transform="translate(-964.000000, -250.000000)">
            <g id="Group" sketch:type="MSLayerGroup" transform="translate(963.000000, 150.000000)">
                <g id="indesign" transform="translate(0.500000, 100.000000)" sketch:type="MSShapeGroup">
                    <rect id="Rectangle-15-Copy-2" stroke="#000000" fill="#FFFFFF" x="0.973395795" y="0" width="30" height="30"></rect>
                    <path d="M8.08229159,8.22 L8.08229159,22.374 L11.2952916,22.374 L11.2952916,8.22 L8.08229159,8.22 Z M20.7242916,7.464 L20.7242916,13.029 L20.6822916,13.029 C20.2202916,12.315 19.2332916,11.874 17.9732916,11.874 C15.5162916,11.874 13.3532916,13.869 13.3742916,17.334 C13.3742916,20.526 15.3272916,22.605 17.7632916,22.605 C19.0862916,22.605 20.3252916,22.017 20.9762916,20.862 L21.0182916,20.862 L21.1652916,22.374 L24.0002916,22.374 C23.9582916,21.681 23.9162916,20.463 23.9162916,19.308 L23.9162916,7.464 L20.7242916,7.464 Z M20.7242916,17.796 C20.7242916,18.069 20.7032916,18.3 20.6402916,18.531 C20.4512916,19.434 19.7162916,20.064 18.7922916,20.064 C17.4692916,20.064 16.6082916,18.972 16.6082916,17.229 C16.6082916,15.612 17.3642916,14.31 18.8132916,14.31 C19.8002916,14.31 20.4932916,15.024 20.6822916,15.885 C20.7032916,16.053 20.7242916,16.284 20.7242916,16.452 L20.7242916,17.796 Z" id="Id" fill="#000000"></path>
                </g>
            </g>
        </g>
    </g>
</svg>