<?xml version="1.0" encoding="UTF-8" standalone="no"?>
<svg width="31px" height="30px" viewBox="0 0 31 30" version="1.1" xmlns="http://www.w3.org/2000/svg" xmlns:xlink="http://www.w3.org/1999/xlink" xmlns:sketch="http://www.bohemiancoding.com/sketch/ns">
    <!-- Generator: Sketch 3.3.3 (12081) - http://www.bohemiancoding.com/sketch -->
    <title>photoshop</title>
    <desc>Created with Sketch.</desc>
    <defs></defs>
    <g id="Welcome" stroke="none" stroke-width="1" fill="none" fill-rule="evenodd" sketch:type="MSPage">
        <g id="theory" sketch:type="MSArtboardGroup" transform="translate(-964.000000, -150.000000)">
            <g id="Group" sketch:type="MSLayerGroup" transform="translate(963.000000, 150.000000)">
                <g id="photoshop" transform="translate(1.500000, 0.000000)" sketch:type="MSShapeGroup">
                    <rect id="Rectangle-15-Copy" stroke="#000000" fill="#FFFFFF" x="0" y="0" width="30" height="30"></rect>
                    <path d="M5.7018958,22.374 L8.8728958,22.374 L8.8728958,17.313 C9.1668958,17.355 9.5448958,17.376 9.9648958,17.376 C11.8548958,17.376 13.4718958,16.914 14.5638958,15.885 C15.4038958,15.087 15.8658958,13.911 15.8658958,12.525 C15.8658958,11.139 15.2568958,9.963 14.3538958,9.249 C13.4088958,8.493 12.0018958,8.115 10.0278958,8.115 C8.0748958,8.115 6.6888958,8.241 5.7018958,8.409 L5.7018958,22.374 Z M8.8728958,10.656 C9.1038958,10.593 9.5448958,10.53 10.1958958,10.53 C11.7918958,10.53 12.6948958,11.307 12.6948958,12.609 C12.6948958,14.058 11.6448958,14.919 9.9438958,14.919 C9.4818958,14.919 9.1458958,14.898 8.8728958,14.835 L8.8728958,10.656 Z M17.2098958,21.87 C17.9868958,22.29 19.1838958,22.584 20.5278958,22.584 C23.4678958,22.584 24.9798958,21.177 24.9798958,19.266 C24.9588958,17.754 24.1398958,16.767 22.1868958,16.095 C20.9268958,15.654 20.5278958,15.402 20.5278958,14.919 C20.5278958,14.394 20.9688958,14.079 21.7458958,14.079 C22.6278958,14.079 23.5098958,14.415 23.9718958,14.667 L24.5388958,12.462 C23.9088958,12.147 22.8378958,11.874 21.6408958,11.874 C19.0998958,11.874 17.4618958,13.323 17.4618958,15.234 C17.4408958,16.452 18.2598958,17.607 20.3808958,18.321 C21.5778958,18.72 21.8928958,18.972 21.8928958,19.497 C21.8928958,20.022 21.4938958,20.358 20.5278958,20.358 C19.5828958,20.358 18.3648958,19.938 17.7768958,19.581 L17.2098958,21.87 Z" id="Ps" fill="#000000"></path>
                </g>
            </g>
        </g>
    </g>
</svg>